<svg xmlns="http://www.w3.org/2000/svg" xmlns:xlink="http://www.w3.org/1999/xlink" width="41px" height="51px" viewBox="0 0 41 51" version="1.1">
    <title>document</title>
    <g id="document" stroke="none" stroke-width="1" fill="none" fill-rule="evenodd">
        <g id="document-f-1" fill="#888888" fill-rule="nonzero">
            <path d="M32.8274,2.9829 C35.6747202,2.9829 37.9829,5.2911798 37.9829,8.1385 L37.9829,42.8274 C37.9829,45.674704 35.674704,47.9829 32.8274,47.9829 L8.1384,47.9829 C5.29109597,47.9829 2.9829,45.674704 2.9829,42.8274 L2.9829,8.1385 C2.9829,5.2911798 5.2910798,2.9829 8.1384,2.9829 L32.8274,2.9829 M32.8274,0 L8.1384,0 C3.64574856,0.00507015741 0.00501495462,3.6458485 0,8.1385 L0,42.8274 C0.00501495462,47.3200515 3.64574856,50.9608298 8.1384,50.9659 L32.8274,50.9659 C37.3200286,50.9607749 40.9607301,47.3200287 40.9658,42.8274 L40.9658,8.1385 C40.9607301,3.64587131 37.3200286,0.0051251476 32.8274,0 Z" id="Shape"/>
            <path d="M19.3627,19.7717 L12.7534,19.7717 L11.3064,24.3343 L7.3564,24.3343 L13.8875,5.5233 L18.5153,5.5233 L25.0464,24.3343 L20.7836,24.3343 L19.3627,19.7717 Z M13.6007,16.8255 L18.5284,16.8255 L16.1949,9.3428 L15.96,9.3428 L13.6007,16.8255 Z" id="Shape"/>
            <rect id="Rectangle" x="7.3564" y="28.8801" width="26.2529" height="4.7733" rx="2.2248"/>
            <rect id="Rectangle" x="7.3564" y="38.6694" width="26.2529" height="4.7733" rx="2.2248"/>
        </g>
    </g>
</svg>