<svg width="88" heigh="88" xmlns="http://www.w3.org/2000/svg" viewBox="0 0 72 72" fill="currentColor"><path d="M 36 13 C 25.744 13 21.573219 21.876937 21.574219 30.710938 C 21.574219 31.235938 21.599563 32.2525 21.601562 32.3125 C 21.622563 32.3185 27.795563 34.263359 35.976562 34.318359 L 36.025391 34.318359 C 44.220391 34.263359 50.398438 32.3125 50.398438 32.3125 C 50.399438 32.2515 50.425781 31.235937 50.425781 30.710938 C 50.425781 21.876938 46.256 13 36 13 z M 32.078125 18.75 C 33.468125 18.688 34.655469 20.271109 34.730469 22.287109 C 34.806469 24.303109 33.741563 25.988781 32.351562 26.050781 C 30.960563 26.113781 29.770312 24.528672 29.695312 22.513672 C 29.620312 20.497672 30.687125 18.813 32.078125 18.75 z M 39.921875 18.75 C 41.313875 18.813 42.378734 20.497672 42.302734 22.513672 C 42.228734 24.528672 41.039437 26.113781 39.648438 26.050781 C 38.258437 25.988781 37.193531 24.303109 37.269531 22.287109 C 37.344531 20.271109 38.531875 18.688 39.921875 18.75 z M 32.855469 21.242188 C 32.255469 21.318188 31.819813 22.025266 31.882812 22.822266 C 31.945813 23.618266 32.485891 24.201047 33.087891 24.123047 C 33.688891 24.046047 34.123547 23.340922 34.060547 22.544922 C 33.997547 21.748922 33.457469 21.164187 32.855469 21.242188 z M 39.96875 21.763672 C 38.645217 21.706291 37.990437 22.618047 37.882812 22.810547 C 37.805813 22.948547 37.860234 23.147094 37.990234 23.246094 C 38.119234 23.344094 38.255031 23.314422 38.332031 23.232422 C 39.444031 22.031422 40.653 22.837812 40.75 22.882812 C 40.901 22.952813 41.172688 22.961562 41.304688 22.601562 C 41.371687 22.420563 41.353109 22.286406 41.287109 22.191406 C 41.242109 22.127406 41.032172 21.964516 40.576172 21.853516 C 40.359422 21.800891 40.157826 21.771869 39.96875 21.763672 z M 35.976562 27.15625 L 36.025391 27.15625 C 40.660391 27.15625 44.405344 28.073484 44.777344 28.896484 C 44.794344 28.932484 44.804688 28.971672 44.804688 29.013672 C 44.804688 29.072672 44.784906 29.128828 44.753906 29.173828 C 44.440906 29.630828 40.282391 31.886719 36.025391 31.886719 L 35.976562 31.886719 C 31.719563 31.886719 27.562047 29.629828 27.248047 29.173828 C 27.217047 29.127828 27.197266 29.072672 27.197266 29.013672 C 27.197266 28.971672 27.207609 28.932484 27.224609 28.896484 C 27.596609 28.072484 31.340562 27.15625 35.976562 27.15625 z M 19.533203 37.478516 C 18.966203 38.957516 18.406094 40.496406 17.996094 41.816406 C 16.040094 48.110406 16.67425 50.714438 17.15625 50.773438 C 18.19125 50.898438 21.185547 46.035156 21.185547 46.035156 C 21.185547 48.853013 22.642314 52.527434 25.783203 55.181641 C 24.606403 55.543984 23.164922 56.095563 22.236328 56.78125 C 21.405328 57.39425 21.508203 58.021437 21.658203 58.273438 C 22.315203 59.382438 32.935953 58.981719 36.001953 58.636719 C 39.067953 58.981719 49.68675 59.382438 50.34375 58.273438 C 50.49375 58.020437 50.595625 57.396203 49.765625 56.783203 C 48.836085 56.09586 47.393444 55.543077 46.216797 55.181641 C 49.35778 52.527434 50.814453 48.853013 50.814453 46.035156 C 50.814453 46.035156 53.810703 50.898438 54.845703 50.773438 C 55.327703 50.714438 55.961859 48.110406 54.005859 41.816406 C 53.595859 40.497406 53.035703 38.957516 52.470703 37.478516 C 47.292703 39.039516 40.876391 40.045328 36.025391 39.986328 L 35.976562 39.986328 C 35.125563 39.996328 34.215203 39.962156 33.283203 39.910156 L 33.283203 46.101562 C 30.100203 46.545562 26.923828 45.904297 26.923828 45.904297 L 26.923828 39.175781 C 24.379828 38.746781 21.834203 38.172516 19.533203 37.478516 z"/></svg>